<svg xmlns="http://www.w3.org/2000/svg" fill="none" viewBox="0 0 508 381">
  <path fill="#B3B7C4" d="m75.5 70.0659 1.6875 4.9375c-5.5833 1.75-9.5417 4.7917-11.875 9.125-2.2917 4.3334-3.4375 9.3334-3.4375 15v14.1876c0 3.958-.75 7.542-2.25 10.75-1.4583 3.208-3.7917 5.75-7 7.625s-7.4167 2.812-12.625 2.812v-5.125c5.125 0 8.8125-1.437 11.0625-4.312 2.25-2.917 3.375-6.833 3.375-11.75V99.1284c0-4.375.625-8.4583 1.875-12.25 1.2917-3.8333 3.4583-7.1875 6.5-10.0625 3.0833-2.9166 7.3125-5.1666 12.6875-6.75Zm1.8125 120.0001L75.5 195.128c-5.375-1.625-9.6042-3.875-12.6875-6.75-3.0417-2.833-5.2083-6.145-6.5-9.937-1.25-3.792-1.875-7.875-1.875-12.25v-14.125c0-3.292-.5-6.125-1.5-8.5-1-2.417-2.5625-4.292-4.6875-5.625-2.0833-1.333-4.8333-2-8.25-2v-5.125c5.2083 0 9.4167.958 12.625 2.875 3.2083 1.875 5.5417 4.417 7 7.625 1.5 3.208 2.25 6.792 2.25 10.75v14.125c0 3.792.5208 7.271 1.5625 10.437 1.0417 3.167 2.6875 5.896 4.9375 8.188 2.2917 2.292 5.2708 4.042 8.9375 5.25Z"/>
  <path fill="#2770EB" d="M192.312 340.066H77.3125L192.312 40.0659V340.066Z"/>
  <path fill="#B3B7C4" fill-rule="evenodd" d="M289.752 40.0659h-90V340.066h62.56v-207.44h27.44V40.0659Zm0 100.0001h-19.999v200h19.999v-200Z" clip-rule="evenodd"/>
  <path fill="#B3B7C4" d="M339.752 240.066h90v100h-90v-100Z"/>
  <path fill="#B3B7C4" fill-rule="evenodd" d="M359.752 140.066h-90v200h62.56v-107.44h27.44v-92.56Zm0 100h-19.999v100h19.999v-100Z" clip-rule="evenodd"/>
  <path fill="#B3B7C4" d="m431.565 70.0659-1.688 4.9375c5.584 1.75 9.542 4.7917 11.875 9.125 2.292 4.3334 3.438 9.3334 3.438 15v14.1876c0 3.958.75 7.542 2.25 10.75 1.458 3.208 3.792 5.75 7 7.625s7.417 2.812 12.625 2.812v-5.125c-5.125 0-8.813-1.437-11.063-4.312-2.25-2.917-3.375-6.833-3.375-11.75V99.1284c0-4.375-.625-8.4583-1.875-12.25-1.291-3.8333-3.458-7.1875-6.5-10.0625-3.083-2.9166-7.312-5.1666-12.687-6.75Zm-1.813 120.0001 1.813 5.062c5.375-1.625 9.604-3.875 12.687-6.75 3.042-2.833 5.209-6.145 6.5-9.937 1.25-3.792 1.875-7.875 1.875-12.25v-14.125c0-3.292.5-6.125 1.5-8.5 1-2.417 2.563-4.292 4.688-5.625 2.083-1.333 4.833-2 8.25-2v-5.125c-5.208 0-9.417.958-12.625 2.875-3.208 1.875-5.542 4.417-7 7.625-1.5 3.208-2.25 6.792-2.25 10.75v14.125c0 3.792-.521 7.271-1.563 10.437-1.041 3.167-2.687 5.896-4.937 8.188-2.292 2.292-5.271 4.042-8.938 5.25Z"/>
</svg>
