<svg width="500" height="380" viewBox="0 0 500 380" fill="none" xmlns="http://www.w3.org/2000/svg">
<path d="M75.5 70L77.1875 74.9375C71.6042 76.6875 67.6458 79.7292 65.3125 84.0625C63.0208 88.3958 61.875 93.3958 61.875 99.0625V113.25C61.875 117.208 61.125 120.792 59.625 124C58.1667 127.208 55.8333 129.75 52.625 131.625C49.4167 133.5 45.2083 134.438 40 134.438V129.312C45.125 129.312 48.8125 127.875 51.0625 125C53.3125 122.083 54.4375 118.167 54.4375 113.25V99.0625C54.4375 94.6875 55.0625 90.6042 56.3125 86.8125C57.6042 82.9792 59.7708 79.625 62.8125 76.75C65.8958 73.8333 70.125 71.5833 75.5 70ZM77.3125 190L75.5 195.062C70.125 193.438 65.8958 191.188 62.8125 188.312C59.7708 185.479 57.6042 182.167 56.3125 178.375C55.0625 174.583 54.4375 170.5 54.4375 166.125V152C54.4375 148.708 53.9375 145.875 52.9375 143.5C51.9375 141.083 50.375 139.208 48.25 137.875C46.1667 136.542 43.4167 135.875 40 135.875V130.75C45.2083 130.75 49.4167 131.708 52.625 133.625C55.8333 135.5 58.1667 138.042 59.625 141.25C61.125 144.458 61.875 148.042 61.875 152V166.125C61.875 169.917 62.3958 173.396 63.4375 176.562C64.4792 179.729 66.125 182.458 68.375 184.75C70.6667 187.042 73.6458 188.792 77.3125 190Z" fill="#C2C5D0"/>
<path fill-rule="evenodd" clip-rule="evenodd" d="M282.312 40H192.312V340H254.873V132.56H282.312V40ZM282.312 140H262.313V340L282.312 340V140Z" fill="#C2C5D0"/>
<path d="M332.312 240H422.312V340H332.312V240Z" fill="#C2C5D0"/>
<path fill-rule="evenodd" clip-rule="evenodd" d="M352.312 140H262.312V340H324.873V232.56H352.312V140ZM352.312 240H332.313V340L352.312 340V240Z" fill="#C2C5D0"/>
<path d="M192.312 340H77.3125L192.312 40V340Z" fill="#2770EB"/>
<path d="M424.125 70L422.438 74.9375C428.021 76.6875 431.979 79.7292 434.312 84.0625C436.604 88.3958 437.75 93.3958 437.75 99.0625V113.25C437.75 117.208 438.5 120.792 440 124C441.458 127.208 443.792 129.75 447 131.625C450.208 133.5 454.417 134.438 459.625 134.438V129.312C454.5 129.312 450.812 127.875 448.562 125C446.312 122.083 445.188 118.167 445.188 113.25V99.0625C445.188 94.6875 444.562 90.6042 443.312 86.8125C442.021 82.9792 439.854 79.625 436.812 76.75C433.729 73.8333 429.5 71.5833 424.125 70ZM422.312 190L424.125 195.062C429.5 193.438 433.729 191.188 436.812 188.312C439.854 185.479 442.021 182.167 443.312 178.375C444.562 174.583 445.188 170.5 445.188 166.125V152C445.188 148.708 445.688 145.875 446.688 143.5C447.688 141.083 449.25 139.208 451.375 137.875C453.458 136.542 456.208 135.875 459.625 135.875V130.75C454.417 130.75 450.208 131.708 447 133.625C443.792 135.5 441.458 138.042 440 141.25C438.5 144.458 437.75 148.042 437.75 152V166.125C437.75 169.917 437.229 173.396 436.188 176.562C435.146 179.729 433.5 182.458 431.25 184.75C428.958 187.042 425.979 188.792 422.312 190Z" fill="#C2C5D0"/>
</svg>
