<svg xmlns="http://www.w3.org/2000/svg" fill="none" viewBox="0 0 508 380">
  <path fill="#C2C5D0" d="m75.5 70 1.688 4.938c-5.584 1.75-9.542 4.791-11.876 9.124-2.291 4.334-3.437 9.334-3.437 15v14.188c0 3.958-.75 7.542-2.25 10.75-1.458 3.208-3.792 5.75-7 7.625s-7.417 2.813-12.625 2.813v-5.126c5.125 0 8.813-1.437 11.063-4.312 2.25-2.917 3.374-6.833 3.374-11.75V99.062c0-4.374.626-8.458 1.876-12.25 1.291-3.833 3.458-7.187 6.5-10.062 3.083-2.917 7.312-5.167 12.687-6.75Zm1.813 120-1.813 5.062c-5.375-1.624-9.604-3.874-12.688-6.75-3.041-2.833-5.208-6.145-6.5-9.937-1.25-3.792-1.874-7.875-1.874-12.25V152c0-3.292-.5-6.125-1.5-8.5-1-2.417-2.563-4.292-4.688-5.625-2.083-1.333-4.833-2-8.25-2v-5.125c5.208 0 9.417.958 12.625 2.875 3.208 1.875 5.542 4.417 7 7.625 1.5 3.208 2.25 6.792 2.25 10.75v14.125c0 3.792.52 7.271 1.563 10.437 1.041 3.167 2.687 5.896 4.937 8.188 2.292 2.292 5.27 4.042 8.938 5.25Z"/>
  <path fill="#2770EB" d="M192.312 340h-115l115-300v300Z"/>
  <path fill="#C2C5D0" fill-rule="evenodd" d="M289.752 40h-90v300h62.56V132.56h27.44V40Zm0 100h-19.999v200h19.999V140Z" clip-rule="evenodd"/>
  <path fill="#C2C5D0" d="M339.752 240h90v100h-90V240Z"/>
  <path fill="#C2C5D0" fill-rule="evenodd" d="M359.752 140h-90v200h62.56V232.56h27.44V140Zm0 100h-19.999v100h19.999V240Z" clip-rule="evenodd"/>
  <path fill="#C2C5D0" d="m431.565 70-1.688 4.938c5.584 1.75 9.542 4.791 11.875 9.124 2.292 4.334 3.438 9.334 3.438 15v14.188c0 3.958.75 7.542 2.25 10.75 1.458 3.208 3.792 5.75 7 7.625s7.417 2.813 12.625 2.813v-5.126c-5.125 0-8.813-1.437-11.063-4.312-2.25-2.917-3.375-6.833-3.375-11.75V99.062c0-4.374-.625-8.458-1.875-12.25-1.291-3.833-3.458-7.187-6.5-10.062-3.083-2.917-7.312-5.167-12.687-6.75Zm-1.813 120 1.813 5.062c5.375-1.624 9.604-3.874 12.687-6.75 3.042-2.833 5.209-6.145 6.5-9.937 1.25-3.792 1.875-7.875 1.875-12.25V152c0-3.292.5-6.125 1.5-8.5 1-2.417 2.563-4.292 4.688-5.625 2.083-1.333 4.833-2 8.25-2v-5.125c-5.208 0-9.417.958-12.625 2.875-3.208 1.875-5.542 4.417-7 7.625-1.5 3.208-2.25 6.792-2.25 10.75v14.125c0 3.792-.521 7.271-1.563 10.437-1.041 3.167-2.687 5.896-4.937 8.188-2.292 2.292-5.271 4.042-8.938 5.25Z"/>
</svg>
