<svg width="500" height="500" viewBox="0 0 500 500" fill="none" xmlns="http://www.w3.org/2000/svg">
<rect width="499.625" height="499.63" rx="24" fill="white"/>
<path d="M75.5 129.815L77.1875 134.752C71.6042 136.502 67.6458 139.544 65.3125 143.877C63.0208 148.211 61.875 153.211 61.875 158.877V173.065C61.875 177.023 61.125 180.607 59.625 183.815C58.1667 187.023 55.8333 189.565 52.625 191.44C49.4167 193.315 45.2083 194.252 40 194.252V189.127C45.125 189.127 48.8125 187.69 51.0625 184.815C53.3125 181.898 54.4375 177.982 54.4375 173.065V158.877C54.4375 154.502 55.0625 150.419 56.3125 146.627C57.6042 142.794 59.7708 139.44 62.8125 136.565C65.8958 133.648 70.125 131.398 75.5 129.815ZM77.3125 249.815L75.5 254.877C70.125 253.252 65.8958 251.002 62.8125 248.127C59.7708 245.294 57.6042 241.982 56.3125 238.19C55.0625 234.398 54.4375 230.315 54.4375 225.94V211.815C54.4375 208.523 53.9375 205.69 52.9375 203.315C51.9375 200.898 50.375 199.023 48.25 197.69C46.1667 196.357 43.4167 195.69 40 195.69V190.565C45.2083 190.565 49.4167 191.523 52.625 193.44C55.8333 195.315 58.1667 197.857 59.625 201.065C61.125 204.273 61.875 207.857 61.875 211.815V225.94C61.875 229.732 62.3958 233.211 63.4375 236.377C64.4792 239.544 66.125 242.273 68.375 244.565C70.6667 246.857 73.6458 248.607 77.3125 249.815Z" fill="#C2C5D0"/>
<path d="M192.312 99.8149H282.312V399.815H192.312V99.8149Z" fill="#C2C5D0"/>
<path d="M262.312 196.095H258.592V199.815V399.815V403.535H262.312H352.312H356.033V399.815V199.815V196.095H352.312H262.312Z" fill="#C2C5D0" stroke="white" stroke-width="7.44"/>
<path d="M332.312 296.095H328.592V299.815V399.815V403.535H332.312H422.312H426.033V399.815V299.815V296.095H422.312H332.312Z" fill="#C2C5D0" stroke="white" stroke-width="7.44"/>
<path d="M192.312 399.815H77.3125L192.312 99.8149V399.815Z" fill="#2770EB"/>
<path d="M424.125 129.815L422.438 134.752C428.021 136.502 431.979 139.544 434.312 143.877C436.604 148.211 437.75 153.211 437.75 158.877V173.065C437.75 177.023 438.5 180.607 440 183.815C441.458 187.023 443.792 189.565 447 191.44C450.208 193.315 454.417 194.252 459.625 194.252V189.127C454.5 189.127 450.812 187.69 448.562 184.815C446.312 181.898 445.188 177.982 445.188 173.065V158.877C445.188 154.502 444.562 150.419 443.312 146.627C442.021 142.794 439.854 139.44 436.812 136.565C433.729 133.648 429.5 131.398 424.125 129.815ZM422.312 249.815L424.125 254.877C429.5 253.252 433.729 251.002 436.812 248.127C439.854 245.294 442.021 241.982 443.312 238.19C444.562 234.398 445.188 230.315 445.188 225.94V211.815C445.188 208.523 445.688 205.69 446.688 203.315C447.688 200.898 449.25 199.023 451.375 197.69C453.458 196.357 456.208 195.69 459.625 195.69V190.565C454.417 190.565 450.208 191.523 447 193.44C443.792 195.315 441.458 197.857 440 201.065C438.5 204.273 437.75 207.857 437.75 211.815V225.94C437.75 229.732 437.229 233.211 436.188 236.377C435.146 239.544 433.5 242.273 431.25 244.565C428.958 246.857 425.979 248.607 422.312 249.815Z" fill="#C2C5D0"/>
</svg>
