<svg xmlns="http://www.w3.org/2000/svg" fill="none" viewBox="0 0 1097 380">
  <path fill="#FBC02D" d="M155.468 340H40.4678L155.468 40v300Z"/>
  <path fill="#0288D1" d="M155.468 40h90v300h-90V40Z"/>
  <path fill="#03A9F4" d="M225.468 140h90v200h-90V140Z"/>
  <path fill="#4FC3F7" d="M295.468 240h90v100h-90V240Z"/>
  <path fill="#FFF" d="m491.218 212.844-5.578-5.766 36.515-37.266 5.578 5.813-36.515 37.219Zm31.078 0-36.516-37.219 5.578-5.813 36.516 37.266-5.578 5.766Z"/>
  <path fill="#B3B7C4" d="m664.968 70 1.687 4.9375c-5.583 1.75-9.541 4.7917-11.875 9.125-2.291 4.3333-3.437 9.3333-3.437 15V113.25c0 3.958-.75 7.542-2.25 10.75-1.459 3.208-3.792 5.75-7 7.625-3.209 1.875-7.417 2.813-12.625 2.813v-5.126c5.125 0 8.812-1.437 11.062-4.312 2.25-2.917 3.375-6.833 3.375-11.75V99.0625c0-4.375.625-8.4583 1.875-12.25 1.292-3.8333 3.459-7.1875 6.5-10.0625 3.084-2.9167 7.313-5.1667 12.688-6.75Zm1.812 120-1.812 5.062c-5.375-1.624-9.604-3.874-12.688-6.75-3.041-2.833-5.208-6.145-6.5-9.937-1.25-3.792-1.875-7.875-1.875-12.25V152c0-3.292-.5-6.125-1.5-8.5-1-2.417-2.562-4.292-4.687-5.625-2.084-1.333-4.834-2-8.25-2v-5.125c5.208 0 9.416.958 12.625 2.875 3.208 1.875 5.541 4.417 7 7.625 1.5 3.208 2.25 6.792 2.25 10.75v14.125c0 3.792.521 7.271 1.562 10.437 1.042 3.167 2.688 5.896 4.938 8.188 2.291 2.292 5.271 4.042 8.937 5.25Z"/>
  <path fill="#2770EB" d="M781.78 340h-115l115-300v300Z"/>
  <path fill="#B3B7C4" fill-rule="evenodd" d="M879.22 40h-90v300h62.56V132.56h27.44V40Zm0 100h-20v200h20V140Z" clip-rule="evenodd"/>
  <path fill="#B3B7C4" d="M929.22 240h90v100h-90V240Z"/>
  <path fill="#B3B7C4" fill-rule="evenodd" d="M949.22 140h-90v200h62.56V232.56h27.44V140Zm0 100h-20v100h20V240Z" clip-rule="evenodd"/>
  <path fill="#B3B7C4" d="m1021.03 70-1.68 4.9375c5.58 1.75 9.54 4.7917 11.87 9.125 2.29 4.3333 3.44 9.3333 3.44 15V113.25c0 3.958.75 7.542 2.25 10.75 1.46 3.208 3.79 5.75 7 7.625s7.41 2.813 12.62 2.813v-5.126c-5.12 0-8.81-1.437-11.06-4.312-2.25-2.917-3.37-6.833-3.37-11.75V99.0625c0-4.375-.63-8.4583-1.88-12.25-1.29-3.8333-3.46-7.1875-6.5-10.0625-3.08-2.9167-7.31-5.1667-12.69-6.75Zm-1.81 120 1.81 5.062c5.38-1.624 9.61-3.874 12.69-6.75 3.04-2.833 5.21-6.145 6.5-9.937 1.25-3.792 1.88-7.875 1.88-12.25V152c0-3.292.5-6.125 1.5-8.5 1-2.417 2.56-4.292 4.68-5.625 2.09-1.333 4.84-2 8.25-2v-5.125c-5.21 0-9.41.958-12.62 2.875-3.21 1.875-5.54 4.417-7 7.625-1.5 3.208-2.25 6.792-2.25 10.75v14.125c0 3.792-.52 7.271-1.56 10.437-1.05 3.167-2.69 5.896-4.94 8.188-2.29 2.292-5.27 4.042-8.94 5.25Z"/>
</svg>
